<svg xmlns="http://www.w3.org/2000/svg" xmlns:xlink="http://www.w3.org/1999/xlink" width="86.253" height="128.814" viewBox="0 0 86.253 128.814"><defs><style>.a{fill:none;}.b{fill:#c69a80;}.c{fill:#b98875;}.d{fill:#eabfa5;}.e{clip-path:url(#a);}.f{fill:#231514;}.g{fill:#fde9da;}</style><clipPath id="a"><path class="a" d="M0,0H86.253V128.814H0Z"/></clipPath></defs><path class="b" d="M3.575,25.233,0,0H49.57L46,25.233H3.575" transform="translate(18.333 100.93)"/><path class="b" d="M0,18.682V10.433L55.051,0V18.682H0" transform="translate(14.519 2.426)"/><path class="c" d="M55.289,40.274H5.72L0,0H61.009L55.29,40.272ZM39.8,19.168a18.2,18.2,0,0,1-6.672,4.608c-3.191,1.624-5.932,3.311-7.149,7.521a1.743,1.743,0,0,1,.6.121,1.743,1.743,0,0,0,.6.121A13.549,13.549,0,0,0,36.224,26.2,15.314,15.314,0,0,0,39.8,19.168Zm-5.957-8.494a13.56,13.56,0,0,0-9.055,5.338,17.556,17.556,0,0,0-3.337,5.823,23.76,23.76,0,0,1,6.911-4.853l.323-.177c2.9-1.589,5.2-2.844,6.349-5.889a2.825,2.825,0,0,1-.789-.152,1.675,1.675,0,0,0-.4-.091h0Z" transform="translate(12.613 60.655)"/><path class="d" d="M0,16.256H81.743V0H0Z" transform="translate(2.365 21.108)"/><path class="a" d="M0,0H86.253V128.814H0Z"/><g class="e"><path class="b" d="M3.336,23.292,0,0H67.682L64.346,23.292H3.336" transform="translate(9.277 37.364)"/><path class="f" d="M64.346,128.831H21.926a2.557,2.557,0,0,1-2.383-2.183L7.388,40.032H4.766A4.815,4.815,0,0,1,0,35.181V23.534a4.815,4.815,0,0,1,4.766-4.851h7.388V12.859a2.361,2.361,0,0,1,1.906-2.428L68.873,0h.477a2.276,2.276,0,0,1,2.383,2.426V18.683H81.5a4.815,4.815,0,0,1,4.766,4.851v11.4A4.815,4.815,0,0,1,81.5,39.789h-2.62L66.729,126.648A2.561,2.561,0,0,1,64.346,128.831ZM20.972,103.6l2.86,20.138H62.438L65.061,103.6Zm-5.48-40.519,5,35.423H65.775l5.243-35.423ZM12.154,39.789l2.62,18.44H71.5l2.62-18.44ZM4.766,23.534v11.4H81.744v-11.4Zm62.44-18.2L16.92,14.8v3.883H67.206Z" transform="translate(-0.018 0)"/></g><path class="g" d="M19.237,1.291C15.9-1.621,9.228.563,4.462,6.143S-1.5,18.759,2.079,21.671c1.907-13.1,15.014-8.734,17.159-20.38" transform="translate(31.03 69.07)"/><path class="g" d="M0,20.38c3.336,2.911,10.009.728,14.776-4.852S20.734,2.911,17.159,0C15.014,11.646,1.907,7.279,0,20.38" transform="translate(35.968 72.786)"/></svg>